<svg version="1.0" xmlns="http://www.w3.org/2000/svg" width="202.667" height="202.667" viewBox="0 0 152 152"><path d="M40.1 52.3c-1.3.6-3.4 2.5-4.5 4-1.9 2.5-2.1 4.5-2.4 17.2-.3 12.7-.1 14.9 1.7 19 2.2 5.1 6.3 7.5 12.6 7.5 8.7 0 13.5-5 13.5-14v-4H51v4.3c0 4.6-1.3 6.7-4.2 6.7-3 0-3.8-3.5-3.8-17.5S43.8 58 46.8 58c2.9 0 4.2 2.1 4.2 6.7V69h10v-4c0-6.2-2.4-10.8-6.4-12.5-4.3-1.8-11.2-1.9-14.5-.2zM69.1 74.2c-2.4 12.3-4.6 22.9-4.9 23.6-.3 1 .7 1.2 4.4 1l4.9-.3.9-4.8c.8-4.7.9-4.7 4.7-4.7 3.3 0 3.9.4 4.4 2.5.3 1.4.7 3.6 1 5 .5 2.2 1 2.5 5.1 2.5 4.3 0 4.6-.2 4.1-2.3-.3-1.2-2.5-11.8-4.8-23.5L84.7 52H73.4l-4.3 22.2zm12.8 7.5c.1.8-1.1 1.3-3 1.3-2.7 0-3-.3-2.6-2.3.3-1.2.8-4.5 1.2-7.2 1.1-8.3 1.7-8.4 3.1-.5.7 4.1 1.3 8.1 1.3 8.7zM93 55.4c0 3.3.2 3.5 3.8 3.8l3.7.3.3 19.7.2 19.8h9l.2-19.8.3-19.7 3.8-.3c3.5-.3 3.7-.5 3.7-3.8V52H93v3.4z"/></svg>